<svg width="796" height="269" viewBox="0 0 796 269" fill="none" xmlns="http://www.w3.org/2000/svg">
<path d="M54.7305 145.543C97.2517 138.564 94.417 180.024 150.403 186.073C206.39 192.122 221.981 149.78 247.494 137.682C273.006 125.585 284.345 70.4576 326.867 74.1799C369.388 77.9023 390.648 115.199 426.083 119.852C461.517 124.505 468.604 155.363 501.912 178.163C535.221 200.962 565.694 203.754 607.507 199.101C649.32 194.448 660.659 147.404 680.502 145.543C700.345 143.682 718.062 166.115 735.071 171.234C752.079 176.352 757.04 199.101 793.183 199.101" stroke="#ECE9F1" stroke-width="4" stroke-linecap="round" stroke-linejoin="round"/>
<path d="M0.56 13.746V12.78L5.474 5.976H7V12.64H8.4V13.746H7V16H5.74V13.746H0.56ZM5.796 7.306L2.03 12.64H5.796V7.306ZM9.67269 10.834C9.67269 9.22867 9.93402 7.978 10.4567 7.082C10.9794 6.17667 11.894 5.724 13.2007 5.724C14.498 5.724 15.408 6.17667 15.9307 7.082C16.4534 7.978 16.7147 9.22867 16.7147 10.834C16.7147 12.4673 16.4534 13.7367 15.9307 14.642C15.408 15.5473 14.498 16 13.2007 16C11.894 16 10.9794 15.5473 10.4567 14.642C9.93402 13.7367 9.67269 12.4673 9.67269 10.834ZM15.4547 10.834C15.4547 10.022 15.3987 9.336 15.2867 8.776C15.184 8.20667 14.9647 7.74933 14.6287 7.404C14.302 7.05867 13.826 6.886 13.2007 6.886C12.566 6.886 12.0807 7.05867 11.7447 7.404C11.418 7.74933 11.1987 8.20667 11.0867 8.776C10.984 9.336 10.9327 10.022 10.9327 10.834C10.9327 11.674 10.984 12.3787 11.0867 12.948C11.1987 13.5173 11.418 13.9747 11.7447 14.32C12.0807 14.6653 12.566 14.838 13.2007 14.838C13.826 14.838 14.302 14.6653 14.6287 14.32C14.9647 13.9747 15.184 13.5173 15.2867 12.948C15.3987 12.3787 15.4547 11.674 15.4547 10.834ZM28.5717 6.312V16H27.2977V8.776L24.0777 16H23.1817L19.9477 8.762V16H18.6737V6.312H20.0457L23.6297 14.32L27.2137 6.312H28.5717Z" fill="#A2A3A5"/>
<path d="M0.84 80.426C0.905333 79.5673 1.23667 78.8953 1.834 78.41C2.43133 77.9247 3.206 77.682 4.158 77.682C4.79267 77.682 5.33867 77.7987 5.796 78.032C6.26267 78.256 6.61267 78.564 6.846 78.956C7.08867 79.348 7.21 79.7913 7.21 80.286C7.21 80.8647 7.042 81.364 6.706 81.784C6.37933 82.204 5.95 82.4747 5.418 82.596V82.666C6.02467 82.8153 6.50533 83.1093 6.86 83.548C7.21467 83.9867 7.392 84.5607 7.392 85.27C7.392 85.802 7.27067 86.2827 7.028 86.712C6.78533 87.132 6.42133 87.4633 5.936 87.706C5.45067 87.9487 4.86733 88.07 4.186 88.07C3.19667 88.07 2.38467 87.8133 1.75 87.3C1.11533 86.7773 0.760667 86.04 0.686 85.088H1.918C1.98333 85.648 2.212 86.1053 2.604 86.46C2.996 86.8147 3.51867 86.992 4.172 86.992C4.82533 86.992 5.32 86.824 5.656 86.488C6.00133 86.1427 6.174 85.6993 6.174 85.158C6.174 84.458 5.94067 83.954 5.474 83.646C5.00733 83.338 4.30267 83.184 3.36 83.184H3.038V82.12H3.374C4.23267 82.1107 4.88133 81.9707 5.32 81.7C5.75867 81.42 5.978 80.9907 5.978 80.412C5.978 79.9173 5.81467 79.5207 5.488 79.222C5.17067 78.9233 4.71333 78.774 4.116 78.774C3.53733 78.774 3.07067 78.9233 2.716 79.222C2.36133 79.5207 2.15133 79.922 2.086 80.426H0.84ZM9.11214 82.834C9.11214 81.2287 9.37347 79.978 9.89614 79.082C10.4188 78.1767 11.3335 77.724 12.6401 77.724C13.9375 77.724 14.8475 78.1767 15.3701 79.082C15.8928 79.978 16.1541 81.2287 16.1541 82.834C16.1541 84.4673 15.8928 85.7367 15.3701 86.642C14.8475 87.5473 13.9375 88 12.6401 88C11.3335 88 10.4188 87.5473 9.89614 86.642C9.37347 85.7367 9.11214 84.4673 9.11214 82.834ZM14.8941 82.834C14.8941 82.022 14.8381 81.336 14.7261 80.776C14.6235 80.2067 14.4041 79.7493 14.0681 79.404C13.7415 79.0587 13.2655 78.886 12.6401 78.886C12.0055 78.886 11.5201 79.0587 11.1841 79.404C10.8575 79.7493 10.6381 80.2067 10.5261 80.776C10.4235 81.336 10.3721 82.022 10.3721 82.834C10.3721 83.674 10.4235 84.3787 10.5261 84.948C10.6381 85.5173 10.8575 85.9747 11.1841 86.32C11.5201 86.6653 12.0055 86.838 12.6401 86.838C13.2655 86.838 13.7415 86.6653 14.0681 86.32C14.4041 85.9747 14.6235 85.5173 14.7261 84.948C14.8381 84.3787 14.8941 83.674 14.8941 82.834ZM28.0112 78.312V88H26.7372V80.776L23.5172 88H22.6212L19.3872 80.762V88H18.1132V78.312H19.4852L23.0692 86.32L26.6532 78.312H28.0112Z" fill="#A2A3A5"/>
<path d="M0.714 158.978C1.89933 158.026 2.828 157.247 3.5 156.64C4.172 156.024 4.73667 155.385 5.194 154.722C5.66067 154.05 5.894 153.392 5.894 152.748C5.894 152.141 5.74467 151.665 5.446 151.32C5.15667 150.965 4.68533 150.788 4.032 150.788C3.39733 150.788 2.90267 150.989 2.548 151.39C2.20267 151.782 2.016 152.309 1.988 152.972H0.756C0.793333 151.927 1.11067 151.119 1.708 150.55C2.30533 149.981 3.07533 149.696 4.018 149.696C4.97933 149.696 5.74 149.962 6.3 150.494C6.86933 151.026 7.154 151.759 7.154 152.692C7.154 153.467 6.92067 154.223 6.454 154.96C5.99667 155.688 5.474 156.332 4.886 156.892C4.298 157.443 3.54667 158.087 2.632 158.824H7.448V159.888H0.714V158.978ZM8.92073 154.834C8.92073 153.229 9.18207 151.978 9.70473 151.082C10.2274 150.177 11.1421 149.724 12.4487 149.724C13.7461 149.724 14.6561 150.177 15.1787 151.082C15.7014 151.978 15.9627 153.229 15.9627 154.834C15.9627 156.467 15.7014 157.737 15.1787 158.642C14.6561 159.547 13.7461 160 12.4487 160C11.1421 160 10.2274 159.547 9.70473 158.642C9.18207 157.737 8.92073 156.467 8.92073 154.834ZM14.7027 154.834C14.7027 154.022 14.6467 153.336 14.5347 152.776C14.4321 152.207 14.2127 151.749 13.8767 151.404C13.5501 151.059 13.0741 150.886 12.4487 150.886C11.8141 150.886 11.3287 151.059 10.9927 151.404C10.6661 151.749 10.4467 152.207 10.3347 152.776C10.2321 153.336 10.1807 154.022 10.1807 154.834C10.1807 155.674 10.2321 156.379 10.3347 156.948C10.4467 157.517 10.6661 157.975 10.9927 158.32C11.3287 158.665 11.8141 158.838 12.4487 158.838C13.0741 158.838 13.5501 158.665 13.8767 158.32C14.2127 157.975 14.4321 157.517 14.5347 156.948C14.6467 156.379 14.7027 155.674 14.7027 154.834ZM27.8198 150.312V160H26.5458V152.776L23.3258 160H22.4298L19.1958 152.762V160H17.9218V150.312H19.2938L22.8778 158.32L26.4618 150.312H27.8198Z" fill="#A2A3A5"/>
<path d="M0.532 223.04V221.878H3.164V232H1.876V223.04H0.532ZM5.35238 226.834C5.35238 225.229 5.61371 223.978 6.13638 223.082C6.65904 222.177 7.57371 221.724 8.88038 221.724C10.1777 221.724 11.0877 222.177 11.6104 223.082C12.133 223.978 12.3944 225.229 12.3944 226.834C12.3944 228.467 12.133 229.737 11.6104 230.642C11.0877 231.547 10.1777 232 8.88038 232C7.57371 232 6.65904 231.547 6.13638 230.642C5.61371 229.737 5.35238 228.467 5.35238 226.834ZM11.1344 226.834C11.1344 226.022 11.0784 225.336 10.9664 224.776C10.8637 224.207 10.6444 223.749 10.3084 223.404C9.98171 223.059 9.50571 222.886 8.88038 222.886C8.24571 222.886 7.76038 223.059 7.42438 223.404C7.09771 223.749 6.87838 224.207 6.76638 224.776C6.66371 225.336 6.61238 226.022 6.61238 226.834C6.61238 227.674 6.66371 228.379 6.76638 228.948C6.87838 229.517 7.09771 229.975 7.42438 230.32C7.76038 230.665 8.24571 230.838 8.88038 230.838C9.50571 230.838 9.98171 230.665 10.3084 230.32C10.6444 229.975 10.8637 229.517 10.9664 228.948C11.0784 228.379 11.1344 227.674 11.1344 226.834ZM24.2514 222.312V232H22.9774V224.776L19.7574 232H18.8614L15.6274 224.762V232H14.3534V222.312H15.7254L19.3094 230.32L22.8934 222.312H24.2514Z" fill="#A2A3A5"/>
<line x1="53.9136" y1="10.5" x2="794" y2="10.5" stroke="#ECE9F1"/>
<line x1="53.9136" y1="82.5" x2="794" y2="82.5" stroke="#ECE9F1"/>
<line x1="53.9136" y1="154.5" x2="794" y2="154.5" stroke="#ECE9F1"/>
<line x1="53.9136" y1="226.5" x2="794" y2="226.5" stroke="#ECE9F1"/>
<path d="M53.9136 210.794C86.4296 204.629 113.168 167.034 151.966 160.715C172.644 157.347 189.21 163.902 207.693 174.088C226.176 184.273 222.558 188.671 264.126 196.524C298.429 203.004 307.402 133.14 341.015 135.825C374.629 138.509 390.176 54.5119 425.665 61.5236C461.153 68.5353 468.244 50.4067 501.604 84.7643C534.963 119.122 565.784 39.0367 607.66 32.0249C649.537 25.0132 660.444 99.4346 680.317 96.6299C700.191 93.8252 718.085 146.855 735.119 154.568C752.154 162.281 756.985 134.263 793.183 134.263" stroke="#422F8A" stroke-opacity="0.87" stroke-width="4" stroke-linecap="round" stroke-linejoin="round"/>
<path d="M151.966 160.715C113.168 167.034 86.4296 204.629 53.9136 210.794V226H793.183V134.263C756.985 134.263 752.154 162.281 735.119 154.568C718.085 146.855 700.191 93.8252 680.318 96.6299C660.444 99.4346 649.537 25.0132 607.66 32.0249C565.784 39.0367 534.963 119.122 501.604 84.7643C468.244 50.4067 461.153 68.5353 425.665 61.5236C390.176 54.5119 374.629 138.509 341.015 135.825C307.402 133.14 298.429 203.004 264.126 196.524C222.558 188.671 226.176 184.273 207.693 174.088C189.21 163.902 172.644 157.347 151.966 160.715Z" fill="url(#paint0_linear)"/>
<path d="M54.714 261.978C55.8993 261.026 56.828 260.247 57.5 259.64C58.172 259.024 58.7367 258.385 59.194 257.722C59.6607 257.05 59.894 256.392 59.894 255.748C59.894 255.141 59.7447 254.665 59.446 254.32C59.1567 253.965 58.6853 253.788 58.032 253.788C57.3973 253.788 56.9027 253.989 56.548 254.39C56.2027 254.782 56.016 255.309 55.988 255.972H54.756C54.7933 254.927 55.1107 254.119 55.708 253.55C56.3053 252.981 57.0753 252.696 58.018 252.696C58.9793 252.696 59.74 252.962 60.3 253.494C60.8693 254.026 61.154 254.759 61.154 255.692C61.154 256.467 60.9207 257.223 60.454 257.96C59.9967 258.688 59.474 259.332 58.886 259.892C58.298 260.443 57.5467 261.087 56.632 261.824H61.448V262.888H54.714V261.978ZM62.9207 257.834C62.9207 256.229 63.1821 254.978 63.7047 254.082C64.2274 253.177 65.1421 252.724 66.4487 252.724C67.7461 252.724 68.6561 253.177 69.1787 254.082C69.7014 254.978 69.9627 256.229 69.9627 257.834C69.9627 259.467 69.7014 260.737 69.1787 261.642C68.6561 262.547 67.7461 263 66.4487 263C65.1421 263 64.2274 262.547 63.7047 261.642C63.1821 260.737 62.9207 259.467 62.9207 257.834ZM68.7027 257.834C68.7027 257.022 68.6467 256.336 68.5347 255.776C68.4321 255.207 68.2127 254.749 67.8767 254.404C67.5501 254.059 67.0741 253.886 66.4487 253.886C65.8141 253.886 65.3287 254.059 64.9927 254.404C64.6661 254.749 64.4467 255.207 64.3347 255.776C64.2321 256.336 64.1807 257.022 64.1807 257.834C64.1807 258.674 64.2321 259.379 64.3347 259.948C64.4467 260.517 64.6661 260.975 64.9927 261.32C65.3287 261.665 65.8141 261.838 66.4487 261.838C67.0741 261.838 67.5501 261.665 67.8767 261.32C68.2127 260.975 68.4321 260.517 68.5347 259.948C68.6467 259.379 68.7027 258.674 68.7027 257.834ZM71.3758 254.04V252.878H74.0078V263H72.7198V254.04H71.3758ZM75.8881 260.746V259.78L80.8021 252.976H82.3281V259.64H83.7281V260.746H82.3281V263H81.0681V260.746H75.8881ZM81.1241 254.306L77.3581 259.64H81.1241V254.306Z" fill="#A2A3A5"/>
<path d="M237.654 261.978C238.84 261.026 239.768 260.247 240.44 259.64C241.112 259.024 241.677 258.385 242.134 257.722C242.601 257.05 242.834 256.392 242.834 255.748C242.834 255.141 242.685 254.665 242.386 254.32C242.097 253.965 241.626 253.788 240.972 253.788C240.338 253.788 239.843 253.989 239.488 254.39C239.143 254.782 238.956 255.309 238.928 255.972H237.696C237.734 254.927 238.051 254.119 238.648 253.55C239.246 252.981 240.016 252.696 240.958 252.696C241.92 252.696 242.68 252.962 243.24 253.494C243.81 254.026 244.094 254.759 244.094 255.692C244.094 256.467 243.861 257.223 243.394 257.96C242.937 258.688 242.414 259.332 241.826 259.892C241.238 260.443 240.487 261.087 239.572 261.824H244.388V262.888H237.654V261.978ZM245.861 257.834C245.861 256.229 246.122 254.978 246.645 254.082C247.168 253.177 248.082 252.724 249.389 252.724C250.686 252.724 251.596 253.177 252.119 254.082C252.642 254.978 252.903 256.229 252.903 257.834C252.903 259.467 252.642 260.737 252.119 261.642C251.596 262.547 250.686 263 249.389 263C248.082 263 247.168 262.547 246.645 261.642C246.122 260.737 245.861 259.467 245.861 257.834ZM251.643 257.834C251.643 257.022 251.587 256.336 251.475 255.776C251.372 255.207 251.153 254.749 250.817 254.404C250.49 254.059 250.014 253.886 249.389 253.886C248.754 253.886 248.269 254.059 247.933 254.404C247.606 254.749 247.387 255.207 247.275 255.776C247.172 256.336 247.121 257.022 247.121 257.834C247.121 258.674 247.172 259.379 247.275 259.948C247.387 260.517 247.606 260.975 247.933 261.32C248.269 261.665 248.754 261.838 249.389 261.838C250.014 261.838 250.49 261.665 250.817 261.32C251.153 260.975 251.372 260.517 251.475 259.948C251.587 259.379 251.643 258.674 251.643 257.834ZM254.316 254.04V252.878H256.948V263H255.66V254.04H254.316ZM265.591 253.984H260.677V257.176C260.891 256.877 261.209 256.635 261.629 256.448C262.049 256.252 262.501 256.154 262.987 256.154C263.761 256.154 264.391 256.317 264.877 256.644C265.362 256.961 265.707 257.377 265.913 257.89C266.127 258.394 266.235 258.931 266.235 259.5C266.235 260.172 266.109 260.774 265.857 261.306C265.605 261.838 265.217 262.258 264.695 262.566C264.181 262.874 263.542 263.028 262.777 263.028C261.797 263.028 261.003 262.776 260.397 262.272C259.79 261.768 259.421 261.096 259.291 260.256H260.537C260.658 260.788 260.915 261.203 261.307 261.502C261.699 261.801 262.193 261.95 262.791 261.95C263.528 261.95 264.083 261.731 264.457 261.292C264.83 260.844 265.017 260.256 265.017 259.528C265.017 258.8 264.83 258.24 264.457 257.848C264.083 257.447 263.533 257.246 262.805 257.246C262.31 257.246 261.876 257.367 261.503 257.61C261.139 257.843 260.873 258.165 260.705 258.576H259.501V252.864H265.591V253.984Z" fill="#A2A3A5"/>
<path d="M415.107 261.978C416.292 261.026 417.221 260.247 417.893 259.64C418.565 259.024 419.129 258.385 419.587 257.722C420.053 257.05 420.287 256.392 420.287 255.748C420.287 255.141 420.137 254.665 419.839 254.32C419.549 253.965 419.078 253.788 418.425 253.788C417.79 253.788 417.295 253.989 416.941 254.39C416.595 254.782 416.409 255.309 416.381 255.972H415.149C415.186 254.927 415.503 254.119 416.101 253.55C416.698 252.981 417.468 252.696 418.411 252.696C419.372 252.696 420.133 252.962 420.693 253.494C421.262 254.026 421.547 254.759 421.547 255.692C421.547 256.467 421.313 257.223 420.847 257.96C420.389 258.688 419.867 259.332 419.279 259.892C418.691 260.443 417.939 261.087 417.025 261.824H421.841V262.888H415.107V261.978ZM423.313 257.834C423.313 256.229 423.575 254.978 424.097 254.082C424.62 253.177 425.535 252.724 426.841 252.724C428.139 252.724 429.049 253.177 429.571 254.082C430.094 254.978 430.355 256.229 430.355 257.834C430.355 259.467 430.094 260.737 429.571 261.642C429.049 262.547 428.139 263 426.841 263C425.535 263 424.62 262.547 424.097 261.642C423.575 260.737 423.313 259.467 423.313 257.834ZM429.095 257.834C429.095 257.022 429.039 256.336 428.927 255.776C428.825 255.207 428.605 254.749 428.269 254.404C427.943 254.059 427.467 253.886 426.841 253.886C426.207 253.886 425.721 254.059 425.385 254.404C425.059 254.749 424.839 255.207 424.727 255.776C424.625 256.336 424.573 257.022 424.573 257.834C424.573 258.674 424.625 259.379 424.727 259.948C424.839 260.517 425.059 260.975 425.385 261.32C425.721 261.665 426.207 261.838 426.841 261.838C427.467 261.838 427.943 261.665 428.269 261.32C428.605 260.975 428.825 260.517 428.927 259.948C429.039 259.379 429.095 258.674 429.095 257.834ZM431.768 254.04V252.878H434.4V263H433.112V254.04H431.768ZM442.231 255.286C442.025 254.25 441.386 253.732 440.313 253.732C439.482 253.732 438.861 254.054 438.451 254.698C438.04 255.333 437.839 256.383 437.849 257.848C438.063 257.363 438.418 256.985 438.913 256.714C439.417 256.434 439.977 256.294 440.593 256.294C441.554 256.294 442.319 256.593 442.889 257.19C443.467 257.787 443.757 258.613 443.757 259.668C443.757 260.303 443.631 260.872 443.379 261.376C443.136 261.88 442.763 262.281 442.259 262.58C441.764 262.879 441.162 263.028 440.453 263.028C439.491 263.028 438.74 262.813 438.199 262.384C437.657 261.955 437.279 261.362 437.065 260.606C436.85 259.85 436.743 258.917 436.743 257.806C436.743 254.381 437.937 252.668 440.327 252.668C441.241 252.668 441.96 252.915 442.483 253.41C443.005 253.905 443.313 254.53 443.407 255.286H442.231ZM440.327 257.372C439.925 257.372 439.547 257.456 439.193 257.624C438.838 257.783 438.549 258.03 438.325 258.366C438.11 258.693 438.003 259.094 438.003 259.57C438.003 260.279 438.208 260.858 438.619 261.306C439.029 261.745 439.617 261.964 440.383 261.964C441.036 261.964 441.554 261.763 441.937 261.362C442.329 260.951 442.525 260.401 442.525 259.71C442.525 258.982 442.338 258.413 441.965 258.002C441.591 257.582 441.045 257.372 440.327 257.372Z" fill="#A2A3A5"/>
<path d="M591.229 261.978C592.414 261.026 593.343 260.247 594.015 259.64C594.687 259.024 595.251 258.385 595.709 257.722C596.175 257.05 596.409 256.392 596.409 255.748C596.409 255.141 596.259 254.665 595.961 254.32C595.671 253.965 595.2 253.788 594.547 253.788C593.912 253.788 593.417 253.989 593.063 254.39C592.717 254.782 592.531 255.309 592.503 255.972H591.271C591.308 254.927 591.625 254.119 592.223 253.55C592.82 252.981 593.59 252.696 594.533 252.696C595.494 252.696 596.255 252.962 596.815 253.494C597.384 254.026 597.669 254.759 597.669 255.692C597.669 256.467 597.435 257.223 596.969 257.96C596.511 258.688 595.989 259.332 595.401 259.892C594.813 260.443 594.061 261.087 593.147 261.824H597.963V262.888H591.229V261.978ZM599.435 257.834C599.435 256.229 599.697 254.978 600.219 254.082C600.742 253.177 601.657 252.724 602.963 252.724C604.261 252.724 605.171 253.177 605.693 254.082C606.216 254.978 606.477 256.229 606.477 257.834C606.477 259.467 606.216 260.737 605.693 261.642C605.171 262.547 604.261 263 602.963 263C601.657 263 600.742 262.547 600.219 261.642C599.697 260.737 599.435 259.467 599.435 257.834ZM605.217 257.834C605.217 257.022 605.161 256.336 605.049 255.776C604.947 255.207 604.727 254.749 604.391 254.404C604.065 254.059 603.589 253.886 602.963 253.886C602.329 253.886 601.843 254.059 601.507 254.404C601.181 254.749 600.961 255.207 600.849 255.776C600.747 256.336 600.695 257.022 600.695 257.834C600.695 258.674 600.747 259.379 600.849 259.948C600.961 260.517 601.181 260.975 601.507 261.32C601.843 261.665 602.329 261.838 602.963 261.838C603.589 261.838 604.065 261.665 604.391 261.32C604.727 260.975 604.947 260.517 605.049 259.948C605.161 259.379 605.217 258.674 605.217 257.834ZM607.89 254.04V252.878H610.522V263H609.234V254.04H607.89ZM618.941 253.872L615.049 263H613.761L617.709 253.998H612.305V252.906H618.941V253.872Z" fill="#A2A3A5"/>
<path d="M765.554 261.978C766.739 261.026 767.668 260.247 768.34 259.64C769.012 259.024 769.577 258.385 770.034 257.722C770.501 257.05 770.734 256.392 770.734 255.748C770.734 255.141 770.585 254.665 770.286 254.32C769.997 253.965 769.525 253.788 768.872 253.788C768.237 253.788 767.743 253.989 767.388 254.39C767.043 254.782 766.856 255.309 766.828 255.972H765.596C765.633 254.927 765.951 254.119 766.548 253.55C767.145 252.981 767.915 252.696 768.858 252.696C769.819 252.696 770.58 252.962 771.14 253.494C771.709 254.026 771.994 254.759 771.994 255.692C771.994 256.467 771.761 257.223 771.294 257.96C770.837 258.688 770.314 259.332 769.726 259.892C769.138 260.443 768.387 261.087 767.472 261.824H772.288V262.888H765.554V261.978ZM773.761 257.834C773.761 256.229 774.022 254.978 774.545 254.082C775.067 253.177 775.982 252.724 777.289 252.724C778.586 252.724 779.496 253.177 780.019 254.082C780.541 254.978 780.803 256.229 780.803 257.834C780.803 259.467 780.541 260.737 780.019 261.642C779.496 262.547 778.586 263 777.289 263C775.982 263 775.067 262.547 774.545 261.642C774.022 260.737 773.761 259.467 773.761 257.834ZM779.543 257.834C779.543 257.022 779.487 256.336 779.375 255.776C779.272 255.207 779.053 254.749 778.717 254.404C778.39 254.059 777.914 253.886 777.289 253.886C776.654 253.886 776.169 254.059 775.833 254.404C775.506 254.749 775.287 255.207 775.175 255.776C775.072 256.336 775.021 257.022 775.021 257.834C775.021 258.674 775.072 259.379 775.175 259.948C775.287 260.517 775.506 260.975 775.833 261.32C776.169 261.665 776.654 261.838 777.289 261.838C777.914 261.838 778.39 261.665 778.717 261.32C779.053 260.975 779.272 260.517 779.375 259.948C779.487 259.379 779.543 258.674 779.543 257.834ZM782.216 254.04V252.878H784.848V263H783.56V254.04H782.216ZM788.884 257.736C788.361 257.531 787.96 257.232 787.68 256.84C787.4 256.448 787.26 255.972 787.26 255.412C787.26 254.908 787.386 254.455 787.638 254.054C787.89 253.643 788.263 253.321 788.758 253.088C789.262 252.845 789.869 252.724 790.578 252.724C791.287 252.724 791.889 252.845 792.384 253.088C792.888 253.321 793.266 253.643 793.518 254.054C793.779 254.455 793.91 254.908 793.91 255.412C793.91 255.953 793.765 256.429 793.476 256.84C793.187 257.241 792.79 257.54 792.286 257.736C792.865 257.913 793.322 258.226 793.658 258.674C794.003 259.113 794.176 259.645 794.176 260.27C794.176 260.877 794.027 261.409 793.728 261.866C793.429 262.314 793.005 262.664 792.454 262.916C791.913 263.159 791.287 263.28 790.578 263.28C789.869 263.28 789.243 263.159 788.702 262.916C788.17 262.664 787.755 262.314 787.456 261.866C787.157 261.409 787.008 260.877 787.008 260.27C787.008 259.645 787.176 259.108 787.512 258.66C787.848 258.212 788.305 257.904 788.884 257.736ZM792.678 255.566C792.678 254.997 792.491 254.558 792.118 254.25C791.745 253.942 791.231 253.788 790.578 253.788C789.934 253.788 789.425 253.942 789.052 254.25C788.679 254.558 788.492 255.001 788.492 255.58C788.492 256.103 788.683 256.523 789.066 256.84C789.458 257.157 789.962 257.316 790.578 257.316C791.203 257.316 791.707 257.157 792.09 256.84C792.482 256.513 792.678 256.089 792.678 255.566ZM790.578 258.296C789.887 258.296 789.323 258.459 788.884 258.786C788.445 259.103 788.226 259.584 788.226 260.228C788.226 260.825 788.436 261.306 788.856 261.67C789.285 262.034 789.859 262.216 790.578 262.216C791.297 262.216 791.866 262.034 792.286 261.67C792.706 261.306 792.916 260.825 792.916 260.228C792.916 259.603 792.701 259.127 792.272 258.8C791.843 258.464 791.278 258.296 790.578 258.296Z" fill="#A2A3A5"/>
<defs>
<linearGradient id="paint0_linear" x1="423.548" y1="31.5586" x2="423.548" y2="307.334" gradientUnits="userSpaceOnUse">
<stop stop-color="#7459D9" stop-opacity="0.1"/>
<stop offset="0.998978" stop-color="white" stop-opacity="0"/>
</linearGradient>
</defs>
</svg>
