<svg width="320" height="206" viewBox="0 0 320 206" fill="none" xmlns="http://www.w3.org/2000/svg">
<g opacity="0.4">
<path d="M103 103V0C74.6369 0 48.959 11.7325 30.3718 30.3718L103 103Z" fill="#5E2A7E"/>
</g>
<g opacity="0.4">
<path d="M103 103H0C0 74.6367 11.7325 48.9588 30.3718 30.3716L103 103Z" fill="#5E2A7E"/>
</g>
<path d="M103 103H0C0 131.363 11.7325 157.041 30.3718 175.628L103 103Z" fill="#5E2A7E"/>
<path d="M103 103V206C74.6369 206 48.959 194.268 30.3718 175.628L103 103Z" fill="#5E2A7E"/>
<path d="M103 103V206C131.363 206 157.041 194.268 175.628 175.628L103 103Z" fill="#5E2A7E"/>
<path d="M103 103H206C206 131.363 194.268 157.041 175.628 175.628L103 103Z" fill="#5E2A7E"/>
<path d="M103 103H206C206 74.6367 194.268 48.9588 175.628 30.3716L103 103Z" fill="#5E2A7E"/>
<g opacity="0.2">
<path d="M103 103V0C131.363 0 157.041 11.7325 175.628 30.3718L103 103Z" fill="#5E2A7E"/>
</g>
<g opacity="0.2">
<g opacity="0.8">
<rect x="230" width="13.9375" height="13.9375" rx="6.96875" fill="#5E2A7E"/>
</g>
</g>
<path d="M236.059 30.3613C236.059 31.6309 235.842 32.5742 235.408 33.1914C234.975 33.8086 234.297 34.1172 233.375 34.1172C232.465 34.1172 231.791 33.8164 231.354 33.2148C230.916 32.6094 230.689 31.707 230.674 30.5078V29.0605C230.674 27.8066 230.891 26.875 231.324 26.2656C231.758 25.6562 232.438 25.3516 233.363 25.3516C234.281 25.3516 234.957 25.6465 235.391 26.2363C235.824 26.8223 236.047 27.7285 236.059 28.9551V30.3613ZM234.975 28.8789C234.975 27.9609 234.846 27.293 234.588 26.875C234.33 26.4531 233.922 26.2422 233.363 26.2422C232.809 26.2422 232.404 26.4512 232.15 26.8691C231.896 27.2871 231.766 27.9297 231.758 28.7969V30.5312C231.758 31.4531 231.891 32.1348 232.156 32.5762C232.426 33.0137 232.832 33.2324 233.375 33.2324C233.91 33.2324 234.307 33.0254 234.564 32.6113C234.826 32.1973 234.963 31.5449 234.975 30.6543V28.8789ZM240.064 30.8184H237.205V29.9336H240.064V30.8184ZM244.826 34H243.736V26.7754L241.551 27.5781V26.5938L244.656 25.4277H244.826V34ZM252.406 30.25C252.18 30.5195 251.908 30.7363 251.592 30.9004C251.279 31.0645 250.936 31.1465 250.561 31.1465C250.068 31.1465 249.639 31.0254 249.271 30.7832C248.908 30.541 248.627 30.2012 248.428 29.7637C248.229 29.3223 248.129 28.8359 248.129 28.3047C248.129 27.7344 248.236 27.2207 248.451 26.7637C248.67 26.3066 248.979 25.957 249.377 25.7148C249.775 25.4727 250.24 25.3516 250.771 25.3516C251.615 25.3516 252.279 25.668 252.764 26.3008C253.252 26.9297 253.496 27.7891 253.496 28.8789V29.1953C253.496 30.8555 253.168 32.0684 252.512 32.834C251.855 33.5957 250.865 33.9863 249.541 34.0059H249.33V33.0918H249.559C250.453 33.0762 251.141 32.8438 251.621 32.3945C252.102 31.9414 252.363 31.2266 252.406 30.25ZM250.736 30.25C251.1 30.25 251.434 30.1387 251.738 29.916C252.047 29.6934 252.271 29.418 252.412 29.0898V28.6562C252.412 27.9453 252.258 27.3672 251.949 26.9219C251.641 26.4766 251.25 26.2539 250.777 26.2539C250.301 26.2539 249.918 26.4375 249.629 26.8047C249.34 27.168 249.195 27.6484 249.195 28.2461C249.195 28.8281 249.334 29.3086 249.611 29.6875C249.893 30.0625 250.268 30.25 250.736 30.25ZM262.492 34C262.43 33.875 262.379 33.6523 262.34 33.332C261.836 33.8555 261.234 34.1172 260.535 34.1172C259.91 34.1172 259.396 33.9414 258.994 33.5898C258.596 33.2344 258.396 32.7852 258.396 32.2422C258.396 31.582 258.646 31.0703 259.146 30.707C259.65 30.3398 260.357 30.1562 261.268 30.1562H262.322V29.6582C262.322 29.2793 262.209 28.9785 261.982 28.7559C261.756 28.5293 261.422 28.416 260.98 28.416C260.594 28.416 260.27 28.5137 260.008 28.709C259.746 28.9043 259.615 29.1406 259.615 29.418H258.525C258.525 29.1016 258.637 28.7969 258.859 28.5039C259.086 28.207 259.391 27.9727 259.773 27.8008C260.16 27.6289 260.584 27.543 261.045 27.543C261.775 27.543 262.348 27.7266 262.762 28.0938C263.176 28.457 263.391 28.959 263.406 29.5996V32.5176C263.406 33.0996 263.48 33.5625 263.629 33.9062V34H262.492ZM260.693 33.1738C261.033 33.1738 261.355 33.0859 261.66 32.9102C261.965 32.7344 262.186 32.5059 262.322 32.2246V30.9238H261.473C260.145 30.9238 259.48 31.3125 259.48 32.0898C259.48 32.4297 259.594 32.6953 259.82 32.8867C260.047 33.0781 260.338 33.1738 260.693 33.1738ZM266.381 27.6602L266.416 28.457C266.9 27.8477 267.533 27.543 268.314 27.543C269.654 27.543 270.33 28.2988 270.342 29.8105V34H269.258V29.8047C269.254 29.3477 269.148 29.0098 268.941 28.791C268.738 28.5723 268.42 28.4629 267.986 28.4629C267.635 28.4629 267.326 28.5566 267.061 28.7441C266.795 28.9316 266.588 29.1777 266.439 29.4824V34H265.355V27.6602H266.381ZM275.918 32.3184C275.918 32.0254 275.807 31.7988 275.584 31.6387C275.365 31.4746 274.98 31.334 274.43 31.2168C273.883 31.0996 273.447 30.959 273.123 30.7949C272.803 30.6309 272.564 30.4355 272.408 30.209C272.256 29.9824 272.18 29.7129 272.18 29.4004C272.18 28.8809 272.398 28.4414 272.836 28.082C273.277 27.7227 273.84 27.543 274.523 27.543C275.242 27.543 275.824 27.7285 276.27 28.0996C276.719 28.4707 276.943 28.9453 276.943 29.5234H275.854C275.854 29.2266 275.727 28.9707 275.473 28.7559C275.223 28.541 274.906 28.4336 274.523 28.4336C274.129 28.4336 273.82 28.5195 273.598 28.6914C273.375 28.8633 273.264 29.0879 273.264 29.3652C273.264 29.627 273.367 29.8242 273.574 29.957C273.781 30.0898 274.154 30.2168 274.693 30.3379C275.236 30.459 275.676 30.6035 276.012 30.7715C276.348 30.9395 276.596 31.1426 276.756 31.3809C276.92 31.6152 277.002 31.9023 277.002 32.2422C277.002 32.8086 276.775 33.2637 276.322 33.6074C275.869 33.9473 275.281 34.1172 274.559 34.1172C274.051 34.1172 273.602 34.0273 273.211 33.8477C272.82 33.668 272.514 33.418 272.291 33.0977C272.072 32.7734 271.963 32.4238 271.963 32.0488H273.047C273.066 32.4121 273.211 32.7012 273.48 32.916C273.754 33.127 274.113 33.2324 274.559 33.2324C274.969 33.2324 275.297 33.1504 275.543 32.9863C275.793 32.8184 275.918 32.5957 275.918 32.3184Z" fill="#263238"/>
<g opacity="0.4">
<g opacity="0.8">
<rect x="230" y="58" width="13.9375" height="13.9375" rx="6.96875" fill="#5E2A7E"/>
</g>
</g>
<path d="M236.299 92H230.709V91.2207L233.662 87.9395C234.1 87.4434 234.4 87.041 234.564 86.7324C234.732 86.4199 234.816 86.0977 234.816 85.7656C234.816 85.3203 234.682 84.9551 234.412 84.6699C234.143 84.3848 233.783 84.2422 233.334 84.2422C232.795 84.2422 232.375 84.3965 232.074 84.7051C231.777 85.0098 231.629 85.4355 231.629 85.9824H230.545C230.545 85.1973 230.797 84.5625 231.301 84.0781C231.809 83.5938 232.486 83.3516 233.334 83.3516C234.127 83.3516 234.754 83.5605 235.215 83.9785C235.676 84.3926 235.906 84.9453 235.906 85.6367C235.906 86.4766 235.371 87.4766 234.301 88.6367L232.016 91.1152H236.299V92ZM243.047 88.3613C243.047 89.6309 242.83 90.5742 242.396 91.1914C241.963 91.8086 241.285 92.1172 240.363 92.1172C239.453 92.1172 238.779 91.8164 238.342 91.2148C237.904 90.6094 237.678 89.707 237.662 88.5078V87.0605C237.662 85.8066 237.879 84.875 238.312 84.2656C238.746 83.6562 239.426 83.3516 240.352 83.3516C241.27 83.3516 241.945 83.6465 242.379 84.2363C242.812 84.8223 243.035 85.7285 243.047 86.9551V88.3613ZM241.963 86.8789C241.963 85.9609 241.834 85.293 241.576 84.875C241.318 84.4531 240.91 84.2422 240.352 84.2422C239.797 84.2422 239.393 84.4512 239.139 84.8691C238.885 85.2871 238.754 85.9297 238.746 86.7969V88.5312C238.746 89.4531 238.879 90.1348 239.145 90.5762C239.414 91.0137 239.82 91.2324 240.363 91.2324C240.898 91.2324 241.295 91.0254 241.553 90.6113C241.814 90.1973 241.951 89.5449 241.963 88.6543V86.8789ZM247.053 88.8184H244.193V87.9336H247.053V88.8184ZM248.75 87.7227L249.184 83.4688H253.555V84.4707H250.104L249.846 86.7969C250.264 86.5508 250.738 86.4277 251.27 86.4277C252.047 86.4277 252.664 86.6855 253.121 87.2012C253.578 87.7129 253.807 88.4062 253.807 89.2812C253.807 90.1602 253.568 90.8535 253.092 91.3613C252.619 91.8652 251.957 92.1172 251.105 92.1172C250.352 92.1172 249.736 91.9082 249.26 91.4902C248.783 91.0723 248.512 90.4941 248.445 89.7559H249.471C249.537 90.2441 249.711 90.6133 249.992 90.8633C250.273 91.1094 250.645 91.2324 251.105 91.2324C251.609 91.2324 252.004 91.0605 252.289 90.7168C252.578 90.373 252.723 89.8984 252.723 89.293C252.723 88.7227 252.566 88.2656 252.254 87.9219C251.945 87.5742 251.533 87.4004 251.018 87.4004C250.545 87.4004 250.174 87.5039 249.904 87.7109L249.617 87.9453L248.75 87.7227ZM259.395 88.25C259.168 88.5195 258.896 88.7363 258.58 88.9004C258.268 89.0645 257.924 89.1465 257.549 89.1465C257.057 89.1465 256.627 89.0254 256.26 88.7832C255.896 88.541 255.615 88.2012 255.416 87.7637C255.217 87.3223 255.117 86.8359 255.117 86.3047C255.117 85.7344 255.225 85.2207 255.439 84.7637C255.658 84.3066 255.967 83.957 256.365 83.7148C256.764 83.4727 257.229 83.3516 257.76 83.3516C258.604 83.3516 259.268 83.668 259.752 84.3008C260.24 84.9297 260.484 85.7891 260.484 86.8789V87.1953C260.484 88.8555 260.156 90.0684 259.5 90.834C258.844 91.5957 257.854 91.9863 256.529 92.0059H256.318V91.0918H256.547C257.441 91.0762 258.129 90.8438 258.609 90.3945C259.09 89.9414 259.352 89.2266 259.395 88.25ZM257.725 88.25C258.088 88.25 258.422 88.1387 258.727 87.916C259.035 87.6934 259.26 87.418 259.4 87.0898V86.6562C259.4 85.9453 259.246 85.3672 258.938 84.9219C258.629 84.4766 258.238 84.2539 257.766 84.2539C257.289 84.2539 256.906 84.4375 256.617 84.8047C256.328 85.168 256.184 85.6484 256.184 86.2461C256.184 86.8281 256.322 87.3086 256.6 87.6875C256.881 88.0625 257.256 88.25 257.725 88.25ZM269.48 92C269.418 91.875 269.367 91.6523 269.328 91.332C268.824 91.8555 268.223 92.1172 267.523 92.1172C266.898 92.1172 266.385 91.9414 265.982 91.5898C265.584 91.2344 265.385 90.7852 265.385 90.2422C265.385 89.582 265.635 89.0703 266.135 88.707C266.639 88.3398 267.346 88.1562 268.256 88.1562H269.311V87.6582C269.311 87.2793 269.197 86.9785 268.971 86.7559C268.744 86.5293 268.41 86.416 267.969 86.416C267.582 86.416 267.258 86.5137 266.996 86.709C266.734 86.9043 266.604 87.1406 266.604 87.418H265.514C265.514 87.1016 265.625 86.7969 265.848 86.5039C266.074 86.207 266.379 85.9727 266.762 85.8008C267.148 85.6289 267.572 85.543 268.033 85.543C268.764 85.543 269.336 85.7266 269.75 86.0938C270.164 86.457 270.379 86.959 270.395 87.5996V90.5176C270.395 91.0996 270.469 91.5625 270.617 91.9062V92H269.48ZM267.682 91.1738C268.021 91.1738 268.344 91.0859 268.648 90.9102C268.953 90.7344 269.174 90.5059 269.311 90.2246V88.9238H268.461C267.133 88.9238 266.469 89.3125 266.469 90.0898C266.469 90.4297 266.582 90.6953 266.809 90.8867C267.035 91.0781 267.326 91.1738 267.682 91.1738ZM273.369 85.6602L273.404 86.457C273.889 85.8477 274.521 85.543 275.303 85.543C276.643 85.543 277.318 86.2988 277.33 87.8105V92H276.246V87.8047C276.242 87.3477 276.137 87.0098 275.93 86.791C275.727 86.5723 275.408 86.4629 274.975 86.4629C274.623 86.4629 274.314 86.5566 274.049 86.7441C273.783 86.9316 273.576 87.1777 273.428 87.4824V92H272.344V85.6602H273.369ZM282.906 90.3184C282.906 90.0254 282.795 89.7988 282.572 89.6387C282.354 89.4746 281.969 89.334 281.418 89.2168C280.871 89.0996 280.436 88.959 280.111 88.7949C279.791 88.6309 279.553 88.4355 279.396 88.209C279.244 87.9824 279.168 87.7129 279.168 87.4004C279.168 86.8809 279.387 86.4414 279.824 86.082C280.266 85.7227 280.828 85.543 281.512 85.543C282.23 85.543 282.812 85.7285 283.258 86.0996C283.707 86.4707 283.932 86.9453 283.932 87.5234H282.842C282.842 87.2266 282.715 86.9707 282.461 86.7559C282.211 86.541 281.895 86.4336 281.512 86.4336C281.117 86.4336 280.809 86.5195 280.586 86.6914C280.363 86.8633 280.252 87.0879 280.252 87.3652C280.252 87.627 280.355 87.8242 280.562 87.957C280.77 88.0898 281.143 88.2168 281.682 88.3379C282.225 88.459 282.664 88.6035 283 88.7715C283.336 88.9395 283.584 89.1426 283.744 89.3809C283.908 89.6152 283.99 89.9023 283.99 90.2422C283.99 90.8086 283.764 91.2637 283.311 91.6074C282.857 91.9473 282.27 92.1172 281.547 92.1172C281.039 92.1172 280.59 92.0273 280.199 91.8477C279.809 91.668 279.502 91.418 279.279 91.0977C279.061 90.7734 278.951 90.4238 278.951 90.0488H280.035C280.055 90.4121 280.199 90.7012 280.469 90.916C280.742 91.127 281.102 91.2324 281.547 91.2324C281.957 91.2324 282.285 91.1504 282.531 90.9863C282.781 90.8184 282.906 90.5957 282.906 90.3184Z" fill="#263238"/>
<g opacity="0.8">
<rect x="230" y="116" width="13.9375" height="13.9375" rx="6.96875" fill="#5E2A7E"/>
</g>
<path d="M234.963 141.463V142.383H234.764C233.92 142.398 233.248 142.648 232.748 143.133C232.248 143.617 231.959 144.299 231.881 145.178C232.33 144.662 232.943 144.404 233.721 144.404C234.463 144.404 235.055 144.666 235.496 145.189C235.941 145.713 236.164 146.389 236.164 147.217C236.164 148.096 235.924 148.799 235.443 149.326C234.967 149.854 234.326 150.117 233.521 150.117C232.705 150.117 232.043 149.805 231.535 149.18C231.027 148.551 230.773 147.742 230.773 146.754V146.338C230.773 144.768 231.107 143.568 231.775 142.74C232.447 141.908 233.445 141.482 234.77 141.463H234.963ZM233.539 145.307C233.168 145.307 232.826 145.418 232.514 145.641C232.201 145.863 231.984 146.143 231.863 146.479V146.877C231.863 147.58 232.021 148.146 232.338 148.576C232.654 149.006 233.049 149.221 233.521 149.221C234.01 149.221 234.393 149.041 234.67 148.682C234.951 148.322 235.092 147.852 235.092 147.27C235.092 146.684 234.949 146.211 234.664 145.852C234.383 145.488 234.008 145.307 233.539 145.307ZM243.047 146.361C243.047 147.631 242.83 148.574 242.396 149.191C241.963 149.809 241.285 150.117 240.363 150.117C239.453 150.117 238.779 149.816 238.342 149.215C237.904 148.609 237.678 147.707 237.662 146.508V145.061C237.662 143.807 237.879 142.875 238.312 142.266C238.746 141.656 239.426 141.352 240.352 141.352C241.27 141.352 241.945 141.646 242.379 142.236C242.812 142.822 243.035 143.729 243.047 144.955V146.361ZM241.963 144.879C241.963 143.961 241.834 143.293 241.576 142.875C241.318 142.453 240.91 142.242 240.352 142.242C239.797 142.242 239.393 142.451 239.139 142.869C238.885 143.287 238.754 143.93 238.746 144.797V146.531C238.746 147.453 238.879 148.135 239.145 148.576C239.414 149.014 239.82 149.232 240.363 149.232C240.898 149.232 241.295 149.025 241.553 148.611C241.814 148.197 241.951 147.545 241.963 146.654V144.879ZM251.938 150C251.875 149.875 251.824 149.652 251.785 149.332C251.281 149.855 250.68 150.117 249.98 150.117C249.355 150.117 248.842 149.941 248.439 149.59C248.041 149.234 247.842 148.785 247.842 148.242C247.842 147.582 248.092 147.07 248.592 146.707C249.096 146.34 249.803 146.156 250.713 146.156H251.768V145.658C251.768 145.279 251.654 144.979 251.428 144.756C251.201 144.529 250.867 144.416 250.426 144.416C250.039 144.416 249.715 144.514 249.453 144.709C249.191 144.904 249.061 145.141 249.061 145.418H247.971C247.971 145.102 248.082 144.797 248.305 144.504C248.531 144.207 248.836 143.973 249.219 143.801C249.605 143.629 250.029 143.543 250.49 143.543C251.221 143.543 251.793 143.727 252.207 144.094C252.621 144.457 252.836 144.959 252.852 145.6V148.518C252.852 149.1 252.926 149.562 253.074 149.906V150H251.938ZM250.139 149.174C250.479 149.174 250.801 149.086 251.105 148.91C251.41 148.734 251.631 148.506 251.768 148.225V146.924H250.918C249.59 146.924 248.926 147.312 248.926 148.09C248.926 148.43 249.039 148.695 249.266 148.887C249.492 149.078 249.783 149.174 250.139 149.174ZM255.826 143.66L255.861 144.457C256.346 143.848 256.979 143.543 257.76 143.543C259.1 143.543 259.775 144.299 259.787 145.811V150H258.703V145.805C258.699 145.348 258.594 145.01 258.387 144.791C258.184 144.572 257.865 144.463 257.432 144.463C257.08 144.463 256.771 144.557 256.506 144.744C256.24 144.932 256.033 145.178 255.885 145.482V150H254.801V143.66H255.826ZM265.363 148.318C265.363 148.025 265.252 147.799 265.029 147.639C264.811 147.475 264.426 147.334 263.875 147.217C263.328 147.1 262.893 146.959 262.568 146.795C262.248 146.631 262.01 146.436 261.854 146.209C261.701 145.982 261.625 145.713 261.625 145.4C261.625 144.881 261.844 144.441 262.281 144.082C262.723 143.723 263.285 143.543 263.969 143.543C264.688 143.543 265.27 143.729 265.715 144.1C266.164 144.471 266.389 144.945 266.389 145.523H265.299C265.299 145.227 265.172 144.971 264.918 144.756C264.668 144.541 264.352 144.434 263.969 144.434C263.574 144.434 263.266 144.52 263.043 144.691C262.82 144.863 262.709 145.088 262.709 145.365C262.709 145.627 262.812 145.824 263.02 145.957C263.227 146.09 263.6 146.217 264.139 146.338C264.682 146.459 265.121 146.604 265.457 146.771C265.793 146.939 266.041 147.143 266.201 147.381C266.365 147.615 266.447 147.902 266.447 148.242C266.447 148.809 266.221 149.264 265.768 149.607C265.314 149.947 264.727 150.117 264.004 150.117C263.496 150.117 263.047 150.027 262.656 149.848C262.266 149.668 261.959 149.418 261.736 149.098C261.518 148.773 261.408 148.424 261.408 148.049H262.492C262.512 148.412 262.656 148.701 262.926 148.916C263.199 149.127 263.559 149.232 264.004 149.232C264.414 149.232 264.742 149.15 264.988 148.986C265.238 148.818 265.363 148.596 265.363 148.318ZM273.967 150.117C273.107 150.117 272.408 149.836 271.869 149.273C271.33 148.707 271.061 147.951 271.061 147.006V146.807C271.061 146.178 271.18 145.617 271.418 145.125C271.66 144.629 271.996 144.242 272.426 143.965C272.859 143.684 273.328 143.543 273.832 143.543C274.656 143.543 275.297 143.814 275.754 144.357C276.211 144.9 276.439 145.678 276.439 146.689V147.141H272.145C272.16 147.766 272.342 148.271 272.689 148.658C273.041 149.041 273.486 149.232 274.025 149.232C274.408 149.232 274.732 149.154 274.998 148.998C275.264 148.842 275.496 148.635 275.695 148.377L276.357 148.893C275.826 149.709 275.029 150.117 273.967 150.117ZM273.832 144.434C273.395 144.434 273.027 144.594 272.73 144.914C272.434 145.23 272.25 145.676 272.18 146.25H275.355V146.168C275.324 145.617 275.176 145.191 274.91 144.891C274.645 144.586 274.285 144.434 273.832 144.434ZM279.42 142.125V143.66H280.604V144.498H279.42V148.43C279.42 148.684 279.473 148.875 279.578 149.004C279.684 149.129 279.863 149.191 280.117 149.191C280.242 149.191 280.414 149.168 280.633 149.121V150C280.348 150.078 280.07 150.117 279.801 150.117C279.316 150.117 278.951 149.971 278.705 149.678C278.459 149.385 278.336 148.969 278.336 148.43V144.498H277.182V143.66H278.336V142.125H279.42ZM290.707 146.9C290.707 147.865 290.486 148.643 290.045 149.232C289.604 149.822 289.006 150.117 288.252 150.117C287.482 150.117 286.877 149.873 286.436 149.385V152.438H285.352V143.66H286.342L286.395 144.363C286.836 143.816 287.449 143.543 288.234 143.543C288.996 143.543 289.598 143.83 290.039 144.404C290.484 144.979 290.707 145.777 290.707 146.801V146.9ZM289.623 146.777C289.623 146.062 289.471 145.498 289.166 145.084C288.861 144.67 288.443 144.463 287.912 144.463C287.256 144.463 286.764 144.754 286.436 145.336V148.365C286.76 148.943 287.256 149.232 287.924 149.232C288.443 149.232 288.855 149.027 289.16 148.617C289.469 148.203 289.623 147.59 289.623 146.777ZM293.518 150H292.434V141H293.518V150ZM299.422 149.373C299 149.869 298.381 150.117 297.564 150.117C296.889 150.117 296.373 149.922 296.018 149.531C295.666 149.137 295.488 148.555 295.484 147.785V143.66H296.568V147.756C296.568 148.717 296.959 149.197 297.74 149.197C298.568 149.197 299.119 148.889 299.393 148.271V143.66H300.477V150H299.445L299.422 149.373ZM306.07 148.318C306.07 148.025 305.959 147.799 305.736 147.639C305.518 147.475 305.133 147.334 304.582 147.217C304.035 147.1 303.6 146.959 303.275 146.795C302.955 146.631 302.717 146.436 302.561 146.209C302.408 145.982 302.332 145.713 302.332 145.4C302.332 144.881 302.551 144.441 302.988 144.082C303.43 143.723 303.992 143.543 304.676 143.543C305.395 143.543 305.977 143.729 306.422 144.1C306.871 144.471 307.096 144.945 307.096 145.523H306.006C306.006 145.227 305.879 144.971 305.625 144.756C305.375 144.541 305.059 144.434 304.676 144.434C304.281 144.434 303.973 144.52 303.75 144.691C303.527 144.863 303.416 145.088 303.416 145.365C303.416 145.627 303.52 145.824 303.727 145.957C303.934 146.09 304.307 146.217 304.846 146.338C305.389 146.459 305.828 146.604 306.164 146.771C306.5 146.939 306.748 147.143 306.908 147.381C307.072 147.615 307.154 147.902 307.154 148.242C307.154 148.809 306.928 149.264 306.475 149.607C306.021 149.947 305.434 150.117 304.711 150.117C304.203 150.117 303.754 150.027 303.363 149.848C302.973 149.668 302.666 149.418 302.443 149.098C302.225 148.773 302.115 148.424 302.115 148.049H303.199C303.219 148.412 303.363 148.701 303.633 148.916C303.906 149.127 304.266 149.232 304.711 149.232C305.121 149.232 305.449 149.15 305.695 148.986C305.945 148.818 306.07 148.596 306.07 148.318Z" fill="#263238"/>
</svg>
