<svg width="320" height="206" viewBox="0 0 320 206" fill="none" xmlns="http://www.w3.org/2000/svg">
<g opacity="0.4">
<path d="M103 103V0C74.6369 0 48.959 11.7325 30.3718 30.3718L103 103Z" fill="#5E2A7E"/>
</g>
<g opacity="0.4">
<path d="M103 103H0C0 74.6367 11.7325 48.9588 30.3718 30.3716L103 103Z" fill="#5E2A7E"/>
</g>
<g opacity="0.4">
<path d="M103 103H0C0 131.363 11.7325 157.041 30.3718 175.628L103 103Z" fill="#5E2A7E"/>
</g>
<g opacity="0.2">
<path d="M103 103V206C74.6369 206 48.959 194.268 30.3718 175.628L103 103Z" fill="#5E2A7E"/>
</g>
<g opacity="0.2">
<path d="M103 103V206C131.363 206 157.041 194.268 175.628 175.628L103 103Z" fill="#5E2A7E"/>
</g>
<path opacity="0.2" d="M103 103H206C206 131.363 194.268 157.041 175.628 175.628L103 103Z" fill="#5E2A7E"/>
<g opacity="0.2">
<path d="M103 103H206C206 74.6367 194.268 48.9588 175.628 30.3716L103 103Z" fill="#5E2A7E"/>
</g>
<g opacity="0.2">
<path d="M103 103V0C131.363 0 157.041 11.7325 175.628 30.3718L103 103Z" fill="#5E2A7E"/>
</g>
<g opacity="0.2">
<g opacity="0.8">
<rect x="230" width="13.9375" height="13.9375" rx="6.96875" fill="#5E2A7E"/>
</g>
</g>
<path d="M235.695 30.2324H232.115V34H230.99V25.4688H236.275V26.3945H232.115V29.3125H235.695V30.2324ZM240.205 34.1172C239.346 34.1172 238.646 33.8359 238.107 33.2734C237.568 32.707 237.299 31.9512 237.299 31.0059V30.8066C237.299 30.1777 237.418 29.6172 237.656 29.125C237.898 28.6289 238.234 28.2422 238.664 27.9648C239.098 27.6836 239.566 27.543 240.07 27.543C240.895 27.543 241.535 27.8145 241.992 28.3574C242.449 28.9004 242.678 29.6777 242.678 30.6895V31.1406H238.383C238.398 31.7656 238.58 32.2715 238.928 32.6582C239.279 33.041 239.725 33.2324 240.264 33.2324C240.646 33.2324 240.971 33.1543 241.236 32.998C241.502 32.8418 241.734 32.6348 241.934 32.377L242.596 32.8926C242.064 33.709 241.268 34.1172 240.205 34.1172ZM240.07 28.4336C239.633 28.4336 239.266 28.5938 238.969 28.9141C238.672 29.2305 238.488 29.6758 238.418 30.25H241.594V30.168C241.562 29.6172 241.414 29.1914 241.148 28.8906C240.883 28.5859 240.523 28.4336 240.07 28.4336ZM245.207 27.6602L245.236 28.3633C245.701 27.8164 246.328 27.543 247.117 27.543C248.004 27.543 248.607 27.8828 248.928 28.5625C249.139 28.2578 249.412 28.0117 249.748 27.8242C250.088 27.6367 250.488 27.543 250.949 27.543C252.34 27.543 253.047 28.2793 253.07 29.752V34H251.986V29.8164C251.986 29.3633 251.883 29.0254 251.676 28.8027C251.469 28.5762 251.121 28.4629 250.633 28.4629C250.23 28.4629 249.896 28.584 249.631 28.8262C249.365 29.0645 249.211 29.3867 249.168 29.793V34H248.078V29.8457C248.078 28.9238 247.627 28.4629 246.725 28.4629C246.014 28.4629 245.527 28.7656 245.266 29.3711V34H244.182V27.6602H245.207ZM255.98 27.6602L256.01 28.3633C256.475 27.8164 257.102 27.543 257.891 27.543C258.777 27.543 259.381 27.8828 259.701 28.5625C259.912 28.2578 260.186 28.0117 260.521 27.8242C260.861 27.6367 261.262 27.543 261.723 27.543C263.113 27.543 263.82 28.2793 263.844 29.752V34H262.76V29.8164C262.76 29.3633 262.656 29.0254 262.449 28.8027C262.242 28.5762 261.895 28.4629 261.406 28.4629C261.004 28.4629 260.67 28.584 260.404 28.8262C260.139 29.0645 259.984 29.3867 259.941 29.793V34H258.852V29.8457C258.852 28.9238 258.4 28.4629 257.498 28.4629C256.787 28.4629 256.301 28.7656 256.039 29.3711V34H254.955V27.6602H255.98ZM268.365 34.1172C267.506 34.1172 266.807 33.8359 266.268 33.2734C265.729 32.707 265.459 31.9512 265.459 31.0059V30.8066C265.459 30.1777 265.578 29.6172 265.816 29.125C266.059 28.6289 266.395 28.2422 266.824 27.9648C267.258 27.6836 267.727 27.543 268.23 27.543C269.055 27.543 269.695 27.8145 270.152 28.3574C270.609 28.9004 270.838 29.6777 270.838 30.6895V31.1406H266.543C266.559 31.7656 266.74 32.2715 267.088 32.6582C267.439 33.041 267.885 33.2324 268.424 33.2324C268.807 33.2324 269.131 33.1543 269.396 32.998C269.662 32.8418 269.895 32.6348 270.094 32.377L270.756 32.8926C270.225 33.709 269.428 34.1172 268.365 34.1172ZM268.23 28.4336C267.793 28.4336 267.426 28.5938 267.129 28.9141C266.832 29.2305 266.648 29.6758 266.578 30.25H269.754V30.168C269.723 29.6172 269.574 29.1914 269.309 28.8906C269.043 28.5859 268.684 28.4336 268.23 28.4336ZM276.039 32.3184C276.039 32.0254 275.928 31.7988 275.705 31.6387C275.486 31.4746 275.102 31.334 274.551 31.2168C274.004 31.0996 273.568 30.959 273.244 30.7949C272.924 30.6309 272.686 30.4355 272.529 30.209C272.377 29.9824 272.301 29.7129 272.301 29.4004C272.301 28.8809 272.52 28.4414 272.957 28.082C273.398 27.7227 273.961 27.543 274.645 27.543C275.363 27.543 275.945 27.7285 276.391 28.0996C276.84 28.4707 277.064 28.9453 277.064 29.5234H275.975C275.975 29.2266 275.848 28.9707 275.594 28.7559C275.344 28.541 275.027 28.4336 274.645 28.4336C274.25 28.4336 273.941 28.5195 273.719 28.6914C273.496 28.8633 273.385 29.0879 273.385 29.3652C273.385 29.627 273.488 29.8242 273.695 29.957C273.902 30.0898 274.275 30.2168 274.814 30.3379C275.357 30.459 275.797 30.6035 276.133 30.7715C276.469 30.9395 276.717 31.1426 276.877 31.3809C277.041 31.6152 277.123 31.9023 277.123 32.2422C277.123 32.8086 276.896 33.2637 276.443 33.6074C275.99 33.9473 275.402 34.1172 274.68 34.1172C274.172 34.1172 273.723 34.0273 273.332 33.8477C272.941 33.668 272.635 33.418 272.412 33.0977C272.193 32.7734 272.084 32.4238 272.084 32.0488H273.168C273.188 32.4121 273.332 32.7012 273.602 32.916C273.875 33.127 274.234 33.2324 274.68 33.2324C275.09 33.2324 275.418 33.1504 275.664 32.9863C275.914 32.8184 276.039 32.5957 276.039 32.3184Z" fill="#263238"/>
<g opacity="0.4">
<g opacity="0.8">
<rect x="230" y="58" width="13.9375" height="13.9375" rx="6.96875" fill="#5E2A7E"/>
</g>
</g>
<path d="M237.547 92H236.416V88.0566H232.115V92H230.99V83.4688H232.115V87.1367H236.416V83.4688H237.547V92ZM239.338 88.7715C239.338 88.1504 239.459 87.5918 239.701 87.0957C239.947 86.5996 240.287 86.2168 240.721 85.9473C241.158 85.6777 241.656 85.543 242.215 85.543C243.078 85.543 243.775 85.8418 244.307 86.4395C244.842 87.0371 245.109 87.832 245.109 88.8242V88.9004C245.109 89.5176 244.99 90.0723 244.752 90.5645C244.518 91.0527 244.18 91.4336 243.738 91.707C243.301 91.9805 242.797 92.1172 242.227 92.1172C241.367 92.1172 240.67 91.8184 240.135 91.2207C239.604 90.623 239.338 89.832 239.338 88.8477V88.7715ZM240.428 88.9004C240.428 89.6035 240.59 90.168 240.914 90.5938C241.242 91.0195 241.68 91.2324 242.227 91.2324C242.777 91.2324 243.215 91.0176 243.539 90.5879C243.863 90.1543 244.025 89.5488 244.025 88.7715C244.025 88.0762 243.859 87.5137 243.527 87.084C243.199 86.6504 242.762 86.4336 242.215 86.4336C241.68 86.4336 241.248 86.6465 240.92 87.0723C240.592 87.498 240.428 88.1074 240.428 88.9004ZM247.738 85.6602L247.768 86.3633C248.232 85.8164 248.859 85.543 249.648 85.543C250.535 85.543 251.139 85.8828 251.459 86.5625C251.67 86.2578 251.943 86.0117 252.279 85.8242C252.619 85.6367 253.02 85.543 253.48 85.543C254.871 85.543 255.578 86.2793 255.602 87.752V92H254.518V87.8164C254.518 87.3633 254.414 87.0254 254.207 86.8027C254 86.5762 253.652 86.4629 253.164 86.4629C252.762 86.4629 252.428 86.584 252.162 86.8262C251.896 87.0645 251.742 87.3867 251.699 87.793V92H250.609V87.8457C250.609 86.9238 250.158 86.4629 249.256 86.4629C248.545 86.4629 248.059 86.7656 247.797 87.3711V92H246.713V85.6602H247.738ZM258.512 85.6602L258.541 86.3633C259.006 85.8164 259.633 85.543 260.422 85.543C261.309 85.543 261.912 85.8828 262.232 86.5625C262.443 86.2578 262.717 86.0117 263.053 85.8242C263.393 85.6367 263.793 85.543 264.254 85.543C265.645 85.543 266.352 86.2793 266.375 87.752V92H265.291V87.8164C265.291 87.3633 265.188 87.0254 264.98 86.8027C264.773 86.5762 264.426 86.4629 263.938 86.4629C263.535 86.4629 263.201 86.584 262.936 86.8262C262.67 87.0645 262.516 87.3867 262.473 87.793V92H261.383V87.8457C261.383 86.9238 260.932 86.4629 260.029 86.4629C259.318 86.4629 258.832 86.7656 258.57 87.3711V92H257.486V85.6602H258.512ZM270.896 92.1172C270.037 92.1172 269.338 91.8359 268.799 91.2734C268.26 90.707 267.99 89.9512 267.99 89.0059V88.8066C267.99 88.1777 268.109 87.6172 268.348 87.125C268.59 86.6289 268.926 86.2422 269.355 85.9648C269.789 85.6836 270.258 85.543 270.762 85.543C271.586 85.543 272.227 85.8145 272.684 86.3574C273.141 86.9004 273.369 87.6777 273.369 88.6895V89.1406H269.074C269.09 89.7656 269.271 90.2715 269.619 90.6582C269.971 91.041 270.416 91.2324 270.955 91.2324C271.338 91.2324 271.662 91.1543 271.928 90.998C272.193 90.8418 272.426 90.6348 272.625 90.377L273.287 90.8926C272.756 91.709 271.959 92.1172 270.896 92.1172ZM270.762 86.4336C270.324 86.4336 269.957 86.5938 269.66 86.9141C269.363 87.2305 269.18 87.6758 269.109 88.25H272.285V88.168C272.254 87.6172 272.105 87.1914 271.84 86.8906C271.574 86.5859 271.215 86.4336 270.762 86.4336ZM278.57 90.3184C278.57 90.0254 278.459 89.7988 278.236 89.6387C278.018 89.4746 277.633 89.334 277.082 89.2168C276.535 89.0996 276.1 88.959 275.775 88.7949C275.455 88.6309 275.217 88.4355 275.061 88.209C274.908 87.9824 274.832 87.7129 274.832 87.4004C274.832 86.8809 275.051 86.4414 275.488 86.082C275.93 85.7227 276.492 85.543 277.176 85.543C277.895 85.543 278.477 85.7285 278.922 86.0996C279.371 86.4707 279.596 86.9453 279.596 87.5234H278.506C278.506 87.2266 278.379 86.9707 278.125 86.7559C277.875 86.541 277.559 86.4336 277.176 86.4336C276.781 86.4336 276.473 86.5195 276.25 86.6914C276.027 86.8633 275.916 87.0879 275.916 87.3652C275.916 87.627 276.02 87.8242 276.227 87.957C276.434 88.0898 276.807 88.2168 277.346 88.3379C277.889 88.459 278.328 88.6035 278.664 88.7715C279 88.9395 279.248 89.1426 279.408 89.3809C279.572 89.6152 279.654 89.9023 279.654 90.2422C279.654 90.8086 279.428 91.2637 278.975 91.6074C278.521 91.9473 277.934 92.1172 277.211 92.1172C276.703 92.1172 276.254 92.0273 275.863 91.8477C275.473 91.668 275.166 91.418 274.943 91.0977C274.725 90.7734 274.615 90.4238 274.615 90.0488H275.699C275.719 90.4121 275.863 90.7012 276.133 90.916C276.406 91.127 276.766 91.2324 277.211 91.2324C277.621 91.2324 277.949 91.1504 278.195 90.9863C278.445 90.8184 278.57 90.5957 278.57 90.3184Z" fill="#263238"/>
</svg>
