<svg width="200" height="200" viewBox="0 0 200 200" fill="none" xmlns="http://www.w3.org/2000/svg">
<path d="M133.2 132C138.11 131.21 142.067 130.417 144.956 126.245C145.806 125.016 146.521 123.88 147.6 122.8" stroke="#E5E5E5" stroke-width="12" stroke-linecap="round" stroke-linejoin="round"/>
<path d="M137.6 133.601C137.771 138.202 140.12 141.41 142.245 145.289C144.654 149.69 147.604 152.405 151.111 155.912C152.822 157.622 154.697 160.605 156.822 161.801C157.692 162.29 162.557 164.958 161.2 163.601" stroke="#E5E5E5" stroke-width="12" stroke-linecap="round" stroke-linejoin="round"/>
<path d="M66 130.4C64.667 130.254 63.3349 130.122 62 130" stroke="#E5E5E5" stroke-width="12" stroke-linecap="round" stroke-linejoin="round"/>
<path d="M66.8001 154C64.0559 154 61.0072 154.469 58.4001 153.6" stroke="#E5E5E5" stroke-width="12" stroke-linecap="round" stroke-linejoin="round"/>
<path d="M35.6 135.2C34.6667 134.934 33.7334 134.667 32.8 134.4" stroke="#E5E5E5" stroke-width="12" stroke-linecap="round" stroke-linejoin="round"/>
<path d="M157.6 86.4004C153.834 91.5114 152.06 97.7165 148.2 102.8C144.868 107.189 141.586 111.566 138.089 115.823C136.218 118.1 133.985 121.131 131.133 122.2C128.608 123.147 125.659 122.757 123.022 122.889C118.686 123.107 114.406 123.531 110.089 123.912C107.669 124.125 105.205 124 102.778 124C100.598 124 98.1259 124.684 96.0001 124.2C91.4136 123.158 88.8647 122.452 86.2223 118.134C83.9075 114.351 81.0184 111.221 78.8001 107.4C77.2185 104.676 75.0028 102.406 73.6001 99.6004" stroke="#E5E5E5" stroke-width="12" stroke-linecap="round" stroke-linejoin="round"/>
<path d="M73.2 69.6004C76.6923 64.1042 80.0935 58.0507 84.4444 53.1559C87.9752 49.1838 91.8607 47.4028 96.7555 45.4004C99.7751 44.1651 102.661 44.1551 105.822 45.067C112.914 47.1127 120.396 50.2794 126.578 54.4004C134.678 59.8004 138.377 69.5023 141.2 78.4004C142.753 83.2958 142.503 88.2728 143.111 93.2893C143.545 96.8661 143.6 100.796 143.6 104.4" stroke="#E5E5E5" stroke-width="12" stroke-linecap="round" stroke-linejoin="round"/>
<path d="M63.6002 72.0005C63.5296 77.6486 62.7877 83.7922 65.0002 89.2005C66.4558 92.7586 69.2316 95.445 70.6224 99.1116C71.7261 102.021 72.3717 104.989 73.9113 107.734C75.3484 110.296 77.5724 112.296 79.3335 114.623C80.4335 116.076 81.5344 117.55 83.0668 118.578C84.7951 119.738 86.6836 120.171 88.4002 121.2" stroke="#E5E5E5" stroke-width="12" stroke-linecap="round" stroke-linejoin="round"/>
<path d="M154 86.0003C156.936 80.8322 155.365 75.2089 154.378 69.7781C153.831 66.7724 150.517 63.3762 148.8 60.8003" stroke="#E5E5E5" stroke-width="12" stroke-linecap="round" stroke-linejoin="round"/>
<path d="M87.2 25.6938C76.7953 31.1986 69.0105 36.3951 63.094 47.004C59.7843 52.9387 58.4993 60.1089 57.4436 66.7597C54.9803 82.2787 59.8056 98.2549 68.2082 111.427C79.6767 129.404 101.579 135.398 121.866 131.636C145.176 127.314 165.775 102.734 160.883 78.1017C156.126 54.1543 138.508 27.5582 113.494 21.1029C105.607 19.0677 97.2171 20.7419 90.1086 24.2001C84.7101 26.8265 84.6 27.096 78.4 30.8" stroke="black" stroke-width="5.2" stroke-linecap="round" stroke-linejoin="round"/>
<path d="M91.2 38.9959C73.8524 44.8941 69.737 61.9285 70.0106 78.6164C70.1157 85.0283 72.1967 90.4419 74.8773 96.1862C77.2025 101.169 78.9489 106.416 83.456 109.962C92.6515 117.195 104.244 117.757 115.502 118.334C126.735 118.91 137.36 112.295 143.424 103.198C149.861 93.5426 148.836 81.9611 144.29 72.0174C138.637 59.6498 128.727 49.6065 116.781 43.0643C111.513 40.1794 104.097 37.3678 97.9326 37.8676C92.4436 38.3127 87.1464 39.5993 83.456 43.2897" stroke="black" stroke-width="5.2" stroke-linecap="round" stroke-linejoin="round"/>
<path d="M128.659 131.738C136.227 141.761 140.357 155.39 149.116 164.485C153.941 169.497 161.504 170.101 166.851 165.393C175.487 157.788 169.989 146.728 164.458 138.749C159.586 131.721 154.754 124.537 150.931 116.89" stroke="black" stroke-width="5.2" stroke-linecap="round" stroke-linejoin="round"/>
<path d="M29.7886 132.435C30.1009 128.687 34.7224 128.335 37.2 127.62C45.4228 128.648 43.738 139.65 35.3363 138.497C32.0758 138.049 29.4868 136.057 29.7886 132.435Z" stroke="black" stroke-width="5.2" stroke-linecap="round" stroke-linejoin="round"/>
<path d="M61.2 147.732C57.3226 148.623 53.3534 150.36 57.968 156.205C60.0301 158.817 66.8792 159.806 69.2104 157.087C71.0177 154.978 69.4415 152.536 67.998 150.804C64.9684 147.169 63.2192 147.208 58.7763 148.196" stroke="black" stroke-width="5.2" stroke-linecap="round" stroke-linejoin="round"/>
<path d="M60 130.4C59.7062 127.305 59.4001 129.6 61.4216 125.711C64.6001 124.4 66.891 124.977 68.5859 127.181C69.4762 128.338 70.9482 132.304 69.1737 133.28C66.1707 134.931 62.0921 132.618 60 130.4Z" stroke="black" stroke-width="5.2" stroke-linecap="round" stroke-linejoin="round"/>
<path d="M134.167 138.276C144.768 138.035 149.691 132.257 154.667 123.727" stroke="black" stroke-width="5.2" stroke-linecap="round" stroke-linejoin="round"/>
</svg>
